<?xml version="1.0" encoding="UTF-8" standalone="no"?>
<!-- Created with Inkscape (http://www.inkscape.org/) -->

<svg
   xmlns:dc="http://purl.org/dc/elements/1.1/"
   xmlns:cc="http://creativecommons.org/ns#"
   xmlns:rdf="http://www.w3.org/1999/02/22-rdf-syntax-ns#"
   xmlns:svg="http://www.w3.org/2000/svg"
   xmlns="http://www.w3.org/2000/svg"
   xmlns:sodipodi="http://sodipodi.sourceforge.net/DTD/sodipodi-0.dtd"
   xmlns:inkscape="http://www.inkscape.org/namespaces/inkscape"
   version="1.0"
   width="200.01601"
   height="242.56645"
   id="svg2"
   inkscape:version="0.48.2 r9819"
   sodipodi:docname="noimage.svg">
  <metadata
     id="metadata3005">
    <rdf:RDF>
      <cc:Work
         rdf:about="">
        <dc:format>image/svg+xml</dc:format>
        <dc:type
           rdf:resource="http://purl.org/dc/dcmitype/StillImage" />
        <dc:title></dc:title>
      </cc:Work>
    </rdf:RDF>
  </metadata>
  <sodipodi:namedview
     pagecolor="#ffffff"
     bordercolor="#666666"
     borderopacity="1"
     objecttolerance="10"
     gridtolerance="10"
     guidetolerance="10"
     inkscape:pageopacity="0"
     inkscape:pageshadow="2"
     inkscape:window-width="1680"
     inkscape:window-height="988"
     id="namedview3003"
     showgrid="false"
     fit-margin-top="0"
     fit-margin-left="0"
     fit-margin-right="0"
     fit-margin-bottom="0"
     inkscape:zoom="4"
     inkscape:cx="92.47595"
     inkscape:cy="3.7459695"
     inkscape:window-x="-8"
     inkscape:window-y="-8"
     inkscape:window-maximized="1"
     inkscape:current-layer="text3007" />
  <defs
     id="defs4" />
  <g
     id="layer1"
     transform="matrix(0.2564307,0,0,0.25649614,-2.5642738,-2.5649917)">
    <rect
       width="778.05908"
       height="778.05908"
       ry="40"
       x="10.970459"
       y="10.970459"
       style="fill:#ff0000;fill-opacity:1;fill-rule:nonzero;stroke:#ff0000;stroke-width:1.94092906;stroke-linecap:butt;stroke-linejoin:miter;stroke-miterlimit:4;stroke-opacity:1;stroke-dasharray:none;stroke-dashoffset:0"
       id="rect22526" />
    <rect
       width="717.79266"
       height="717.79272"
       ry="40"
       x="41.103668"
       y="41.103638"
       style="fill:#ffffff;fill-opacity:1;fill-rule:nonzero;stroke:#ff0000;stroke-width:2.20730257;stroke-linecap:butt;stroke-linejoin:miter;stroke-miterlimit:4;stroke-opacity:1;stroke-dasharray:none;stroke-dashoffset:0"
       id="rect23413" />
    <rect
       width="837.96942"
       height="75.606262"
       ry="37.80299"
       x="-418.9848"
       y="527.88239"
       transform="matrix(-0.707107,0.707107,0.707107,0.707107,0,0)"
       style="fill:#ff0000;fill-opacity:1;fill-rule:nonzero;stroke:#ff0000;stroke-width:3.6187005;stroke-linecap:butt;stroke-linejoin:miter;stroke-miterlimit:4;stroke-opacity:1;stroke-dasharray:none;stroke-dashoffset:0"
       id="rect23421" />
    <rect
       width="837.97064"
       height="75.606377"
       rx="37.803047"
       ry="37.803047"
       x="146.70018"
       y="-37.80328"
       transform="matrix(0.707107,0.707107,-0.707107,0.707107,0,0)"
       style="fill:#ff0000;fill-opacity:1;fill-rule:nonzero;stroke:#ff0000;stroke-width:3.61870646;stroke-linecap:butt;stroke-linejoin:miter;stroke-miterlimit:4;stroke-opacity:1;stroke-dasharray:none;stroke-dashoffset:0"
       id="rect23425" />
  </g>
  <g
     style="font-size:40px;font-style:normal;font-variant:normal;font-weight:normal;font-stretch:normal;text-align:start;line-height:125%;letter-spacing:0px;word-spacing:0px;writing-mode:lr-tb;text-anchor:start;fill:#ff0000;fill-opacity:1;stroke:none;font-family:Tahoma;-inkscape-font-specification:Tahoma"
     id="text3007">
    <g
       id="g3026">
      <path
         inkscape:connector-curvature="0"
         id="path3012"
         d="m 29.746647,236.07817 -4.335937,0 -12.851563,-25.07812 0,25.07812 -3.6132809,0 0,-29.08203 5.4882809,0 11.699219,23.02734 0,-23.02734 3.613281,0 z" />
      <path
         inkscape:connector-curvature="0"
         id="path3014"
         d="m 56.231022,210.33598 c 1.106747,1.27607 1.966121,2.8581 2.578125,4.7461 0.611953,1.88804 0.917942,4.04298 0.917969,6.46484 -2.7e-5,2.35678 -0.299506,4.48569 -0.898437,6.38672 -0.598984,1.90105 -1.464869,3.4961 -2.597657,4.78516 -1.184918,1.35416 -2.56838,2.35351 -4.15039,2.99804 -1.582049,0.64453 -3.323584,0.9668 -5.22461,0.9668 -1.966158,0 -3.736989,-0.33203 -5.3125,-0.99609 -1.575528,-0.66407 -2.929693,-1.65365 -4.0625,-2.96875 -1.119795,-1.28906 -1.979169,-2.8776 -2.578125,-4.76563 -0.59896,-1.88801 -0.898438,-4.02342 -0.898437,-6.40625 -1e-6,-2.4479 0.302733,-4.59633 0.908203,-6.44531 0.605466,-1.84894 1.468095,-3.43748 2.587891,-4.76563 1.119785,-1.28903 2.470695,-2.26885 4.052734,-2.93945 1.582021,-0.67054 3.349597,-1.00583 5.302734,-1.00586 1.979151,3e-5 3.763003,0.34508 5.351563,1.03516 1.58852,0.69013 2.929665,1.66018 4.023437,2.91015 z m -0.527343,11.21094 c -2.3e-5,-1.92707 -0.208357,-3.63279 -0.625,-5.11719 -0.416689,-1.48435 -1.002626,-2.71482 -1.757813,-3.6914 -0.768249,-1.00258 -1.695982,-1.75454 -2.783203,-2.25586 -1.087256,-0.50128 -2.307958,-0.75193 -3.662109,-0.75196 -1.406263,3e-5 -2.633475,0.24417 -3.681641,0.73243 -1.048187,0.4883 -1.97592,1.24677 -2.783203,2.27539 -0.768236,0.9896 -1.357428,2.23309 -1.767578,3.73047 -0.410162,1.49741 -0.61524,3.19012 -0.615235,5.07812 -5e-6,3.81512 0.800775,6.73503 2.402344,8.75977 1.601553,2.02474 3.749989,3.03711 6.445313,3.03711 2.695295,0 4.840475,-1.01237 6.435546,-3.03711 1.59503,-2.02474 2.392556,-4.94465 2.392579,-8.75977 z" />
      <path
         inkscape:connector-curvature="0"
         id="path3016"
         d="m 86.602116,236.07817 -11.289062,0 0,-2.96875 3.710937,0 0,-23.14453 -3.710937,0 0,-2.96875 11.289062,0 0,2.96875 -3.710937,0 0,23.14453 3.710937,0 z" />
      <path
         inkscape:connector-curvature="0"
         id="path3018"
         d="m 116.28962,236.07817 -3.86719,0 0,-25.05859 -7.57813,17.05078 -2.34375,0 -7.519528,-17.05078 0,25.05859 -3.613281,0 0,-29.08203 5.273438,0 7.265621,16.19141 7.01172,-16.19141 5.3711,0 z" />
      <path
         inkscape:connector-curvature="0"
         id="path3020"
         d="m 119.08258,236.07817 9.80469,-29.08203 4.76563,0 9.80468,29.08203 -4.08203,0 -2.63672,-8.125 -11.11328,0 -2.63672,8.125 z m 16.58204,-11.42578 -4.49219,-13.71094 -4.47266,13.71094 z" />
      <path
         inkscape:connector-curvature="0"
         id="path3022"
         d="m 158.37946,236.64458 c -2.0573,0 -3.93881,-0.3125 -5.64453,-0.9375 -1.70574,-0.625 -3.17058,-1.57552 -4.39453,-2.85157 -1.22396,-1.28905 -2.16146,-2.8841 -2.8125,-4.78515 -0.65105,-1.90103 -0.97657,-4.08853 -0.97657,-6.5625 0,-2.34373 0.32878,-4.44334 0.98633,-6.29883 0.65755,-1.85545 1.59831,-3.44073 2.82227,-4.75586 1.18489,-1.27601 2.64322,-2.25909 4.375,-2.94922 1.73176,-0.69007 3.62629,-1.03512 5.68359,-1.03515 0.97655,3e-5 1.91405,0.0716 2.8125,0.21484 0.89842,0.14326 1.7578,0.33857 2.57813,0.58594 0.65102,0.19534 1.37693,0.46552 2.17773,0.81054 0.80076,0.34508 1.44855,0.64131 1.94336,0.88868 l 0,4.66796 -0.33203,0 c -0.48179,-0.42966 -0.97984,-0.83656 -1.49414,-1.2207 -0.51435,-0.38409 -1.24026,-0.7975 -2.17774,-1.24023 -0.78127,-0.3906 -1.6797,-0.71612 -2.69531,-0.97657 -1.01564,-0.26039 -2.10939,-0.39059 -3.28125,-0.39062 -2.79949,3e-5 -5.06186,1.05471 -6.78711,3.16406 -1.72526,2.1094 -2.58789,4.91538 -2.58789,8.41797 0,1.95314 0.22786,3.65887 0.6836,5.11719 0.45572,1.45834 1.11327,2.69532 1.97265,3.71094 0.83333,1.0026 1.83919,1.76758 3.01758,2.29492 1.17837,0.52734 2.50324,0.79102 3.97461,0.79101 1.09373,1e-5 2.18097,-0.0781 3.26172,-0.23437 1.08071,-0.15625 1.99217,-0.39062 2.73437,-0.70313 l 0,-7.51953 -6.71875,0 0,-3.39844 10.54688,0 0,12.69532 c -0.49482,0.22135 -1.15562,0.5013 -1.98242,0.83984 -0.82685,0.33854 -1.59833,0.60547 -2.31446,0.80078 -0.95054,0.28646 -1.80991,0.5013 -2.57812,0.64453 -0.76825,0.14323 -1.69924,0.21485 -2.79297,0.21485 z" />
      <path
         inkscape:connector-curvature="0"
         id="path3024"
         d="m 172.93024,236.07817 0,-29.08203 18.18359,0 0,3.4375 -14.3164,0 0,7.96875 13.33984,0 0,3.4375 -13.33984,0 0,10.80078 14.3164,0 0,3.4375 z" />
    </g>
  </g>
</svg>
